<?xml version="1.0" encoding="UTF-8" standalone="no"?><!DOCTYPE svg PUBLIC "-//W3C//DTD SVG 1.1//EN" "http://www.w3.org/Graphics/SVG/1.1/DTD/svg11.dtd"><svg width="100%" height="100%" viewBox="0 0 72 72" version="1.1" xmlns="http://www.w3.org/2000/svg" xmlns:xlink="http://www.w3.org/1999/xlink" xml:space="preserve" xmlns:serif="http://www.serif.com/" style="fill-rule:evenodd;clip-rule:evenodd;stroke-linejoin:round;stroke-miterlimit:2;"><path d="M21.38,58.153c0.587,0 1.15,0.233 1.565,0.648c2.262,2.262 9.672,9.673 9.672,9.673c0.897,0.897 2.114,1.401 3.383,1.401c1.269,0 2.486,-0.504 3.383,-1.401c0,0 7.41,-7.411 9.672,-9.673c0.415,-0.415 0.978,-0.648 1.565,-0.648l11.286,0c2.497,0 4.893,-0.992 6.659,-2.758c1.766,-1.767 2.759,-4.162 2.759,-6.66l0,-37.192c0,-2.498 -0.993,-4.893 -2.759,-6.659c-1.766,-1.767 -4.162,-2.759 -6.659,-2.759l-51.812,0c-2.497,0 -4.893,0.992 -6.659,2.759c-1.766,1.766 -2.759,4.161 -2.759,6.659l0,37.192c0,2.498 0.993,4.893 2.759,6.66c1.766,1.766 4.162,2.758 6.659,2.758l11.286,0Zm-0,-1.783l-11.286,0c-2.024,0 -3.966,-0.804 -5.398,-2.236c-1.431,-1.432 -2.237,-3.374 -2.237,-5.399l-0,-37.192c-0,-2.025 0.805,-3.966 2.237,-5.398c1.432,-1.433 3.374,-2.237 5.398,-2.237l51.812,0c2.024,0 3.966,0.804 5.398,2.237c1.432,1.432 2.237,3.373 2.237,5.398l-0,37.192c-0,2.025 -0.806,3.967 -2.237,5.399c-1.432,1.432 -3.374,2.236 -5.398,2.236l-11.286,0c-1.06,0 -2.077,0.421 -2.826,1.17c-2.258,2.258 -9.644,9.645 -9.672,9.673c-0.563,0.563 -1.326,0.879 -2.122,0.879c-0.796,0 -1.559,-0.316 -2.122,-0.879c-0.028,-0.028 -7.414,-7.415 -9.672,-9.673c-0.749,-0.749 -1.766,-1.17 -2.826,-1.17Z" style="fill:#58d2ed;fill-rule:nonzero;"/><path d="M21.38,54.467l-11.286,0c-1.519,0 -2.978,-0.603 -4.052,-1.678c-1.075,-1.076 -1.68,-2.533 -1.68,-4.054l0,-37.192c0,-1.52 0.605,-2.978 1.679,-4.053l0.001,0c1.075,-1.076 2.533,-1.679 4.052,-1.679l51.812,0c1.519,0 2.977,0.603 4.052,1.679l0.001,0c1.074,1.075 1.679,2.533 1.679,4.053l0,37.192c0,1.521 -0.605,2.978 -1.68,4.054c-1.074,1.075 -2.533,1.678 -4.052,1.678l-11.286,0c-1.565,0 -3.065,0.622 -4.171,1.728c-2.256,2.255 -9.631,9.631 -9.672,9.673c-0.206,0.206 -0.486,0.321 -0.777,0.321c-0.291,0 -0.571,-0.115 -0.777,-0.321c-0.041,-0.042 -7.416,-7.418 -9.672,-9.673c-1.106,-1.106 -2.606,-1.728 -4.171,-1.728Z" style="fill:#58d2ed;"/><path d="M40.406,26.113c-0.341,1.077 -0.005,2.254 0.854,2.988c3.736,3.218 13.188,11.29 13.188,11.29c0.256,0.186 0.501,0.394 0.733,0.625c2.369,2.37 2.369,6.219 -0,8.588c-2.37,2.37 -6.219,2.37 -8.589,0c-0.272,-0.272 -0.512,-0.563 -0.722,-0.87c-0,0 -7.741,-9.323 -10.892,-13.118c-0.747,-0.9 -1.972,-1.248 -3.081,-0.875c-4.588,1.529 -9.849,0.458 -13.501,-3.194c-1.636,-1.635 -2.753,-3.594 -3.354,-5.672l5.166,-1.668l5.528,5.529l7.552,-2.024l2.024,-7.552l-5.529,-5.529l1.771,-5.135c2.04,0.607 3.961,1.715 5.569,3.324c3.595,3.595 4.689,8.749 3.283,13.293Z" style="fill:#fff;"/></svg>