<?xml version="1.0" encoding="UTF-8" standalone="no"?>
<!DOCTYPE svg PUBLIC "-//W3C//DTD SVG 1.1//EN" "http://www.w3.org/Graphics/SVG/1.1/DTD/svg11.dtd">
<svg width="100%" height="100%" viewBox="0 0 16 16" version="1.1" xmlns="http://www.w3.org/2000/svg" xmlns:xlink="http://www.w3.org/1999/xlink" xml:space="preserve" xmlns:serif="http://www.serif.com/" style="fill-rule:evenodd;clip-rule:evenodd;stroke-linejoin:round;stroke-miterlimit:2;">
    <path d="M8,1C6.903,1 6,1.903 6,3C6,4.097 6.903,5 8,5C9.097,5 10,4.097 10,3C10,1.903 9.097,1 8,1ZM9.23,5.49L6.77,5.49C5.799,5.49 5,6.289 5,7.26L5,9.9C4.977,10.474 5.426,10.968 6,11L6,13.33C6,13.988 6.542,14.53 7.2,14.53L8.801,14.53C9.459,14.53 10.001,13.988 10.001,13.33C10.001,13.317 10,13.303 10,13.29L10,11C10.574,10.968 11.023,10.474 11,9.9L11,7.26C11,6.289 10.201,5.49 9.23,5.49Z" style="fill-rule:nonzero;"/>
</svg>
